#!OML:ASF F:\VICON\USERDATA\INSTALL\rory3\rory3.ASF
:FULLY-SPECIFIED
:DEGREES
16
root 0.313527 18.4185 -27.6095 7.26906 -3.86905 2.41718
lowerback 11.9884 -3.2423 -5.01069
upperback -1.12479 -5.05751 -0.108854
thorax -7.50046 -2.25717 3.60568
lowerneck -4.02368 3.14792 -0.789988
upperneck -8.36817 4.17398 -0.625406
head -1.93242 2.11036 -0.0845694
rclavicle 1.14301e-014 -2.34566e-014
rhumerus -67.0453 4.06747 -81.4717
rradius 85.8532
rwrist -2.45945
rhand -45.0851 41.255
rfingers 7.12502
rthumb -17.8655 12.0556
lclavicle 1.14301e-014 -2.34566e-014
lhumerus -17.2835 -20.1888 86.7029
lradius 122.299
lwrist 28.6705
lhand -38.4141 1.36999
lfingers 7.12502
lthumb -11.4387 31.038
rfemur -44.102 4.44269 18.6619
rtibia 48.3725
rfoot 1.17312 -0.256113
rtoes -5.94969
lfemur 29.998 -4.65814 -30.2768
ltibia -8.5875e-014
lfoot 42.593 -0.889579
ltoes -2.90236
17
root 0.341344 18.4585 -27.0476 7.43212 -4.11702 2.92129
lowerback 11.5708 -3.23934 -5.03096
upperback -0.849179 -5.03633 -0.325406
thorax -6.98715 -2.27521 3.34033
lowerneck -5.10473 3.23567 -0.43706
upperneck -8.5242 4.27318 -0.828634
head -1.78535 2.15117 -0.187497
rclavicle -9.66093e-014 -5.96354e-015
rhumerus -66.5609 3.02504 -81.1866
rradius 86.2589
rwrist -2.51736
rhand -44.8709 41.3251
rfingers 7.12502
rthumb -17.6595 12.1071
lclavicle -9.66093e-014 -5.96354e-015
lhumerus -17.2156 -21.0417 86.6612
lradius 122.131
lwrist 27.9533
lhand -38.6726 1.08412
lfingers 7.12502
lthumb -11.688 30.7381
rfemur -43.3538 4.26231 18.3101
rtibia 43.2873
rfoot 1.33427 0.564771
rtoes -6.87533
lfemur 30.9431 -5.0393 -31.3628
ltibia -1.01778e-013
lfoot 43.1769 -2.09545
ltoes -0.628987
18
root 0.366996 18.4896 -26.4992 7.38897 -4.52463 3.21591
lowerback 11.6753 -3.25024 -5.04741
upperback -0.863733 -5.06233 -0.356683
thorax -7.06133 -2.28466 3.32921
lowerneck -4.87386 3.3899 -0.473973
upperneck -9.00196 4.46633 -0.982485
head -1.97667 2.25242 -0.24045
rclavicle -6.4605e-016 4.17448e-015
rhumerus -66.5076 2.65053 -80.9876
rradius 86.7092
rwrist -2.56955
rhand -44.9216 41.1531
rfingers 7.12502
rthumb -17.7082 11.9395
lclavicle -6.4605e-016 4.17448e-015
lhumerus -18.0967 -21.5411 87.062
lradius 122.018
lwrist 27.352
lhand -38.5425 2.49115
lfingers 7.12502
lthumb -11.5625 32.1522
rfemur -42.3144 4.33872 18.2063
rtibia 38.397
rfoot 1.69131 1.08671
rtoes -8.27437
lfemur 29.2115 -5.14409 -32.5209
ltibia 5.74684
lfoot 40.9638 -2.67605
ltoes -3.04194
19
root 0.387239 18.5152 -25.9522 7.14748 -5.24105 3.44939
lowerback 11.8957 -3.12521 -5.07378
upperback -0.735858 -4.91586 -0.470231
thorax -7.07028 -2.21559 3.21137
lowerneck -4.56716 3.55137 -0.55072
upperneck -9.88142 4.68251 -0.891532
head -2.32294 2.36273 -0.219588
rclavicle 1.82385e-014 -1.09332e-014
rhumerus -66.2324 2.22967 -80.9446
rradius 87.0754
rwrist -2.47796
rhand -45.1025 41.0123
rfingers 7.12502
rthumb -17.8823 11.8145
lclavicle 1.82385e-014 -1.09332e-014
lhumerus -18.9569 -22.0057 87.3797
lradius 121.777
lwrist 26.7525
lhand -38.6604 3.4931
lfingers 7.12502
lthumb -11.6761 33.1477
rfemur -41.0255 4.86594 18.098
rtibia 33.8578
rfoot 2.01076 0.954357
rtoes -7.50077
lfemur 27.6423 -4.96259 -33.5435
ltibia 11.2201
lfoot 38.4404 -2.38085
ltoes -9.51236
20
root 0.409876 18.5284 -25.4038 6.8175 -5.84757 3.61771
lowerback 11.8507 -2.95122 -4.75304
upperback -0.17957 -4.63834 -0.829499
thorax -6.52879 -2.12519 2.58446
lowerneck -5.31075 3.62821 -0.219907
upperneck -10.6009 4.78778 -0.699066
head -2.42931 2.39797 -0.209231
rclavicle -4.9398e-014 4.41302e-014
rhumerus -65.227 1.13787 -81.1781
rradius 87.2635
rwrist -2.21251
rhand -45.7454 41.0956
rfingers 7.12502
rthumb -18.5008 11.9553
lclavicle -4.9398e-014 4.41302e-014
lhumerus -19.1047 -22.7229 87.1126
lradius 121.259
lwrist 26.3769
lhand -38.3171 3.69084
lfingers 7.12502
lthumb -11.3451 33.364
rfemur -39.5811 5.32705 18.0756
rtibia 29.8384
rfoot 2.10007 0.246972
rtoes -8.07053
lfemur 26.5674 -4.8995 -34.3776
ltibia 16.0118
lfoot 41.398 -1.24478
ltoes 5.73268
